<svg width="500" height="172" viewBox="0 0 500 172" fill="none" xmlns="http://www.w3.org/2000/svg">
<g clip-path="url(#clip0_351_674)">
<path d="M158.912 52.7559V170.95L16.1705 171.445C16.535 166.279 -6.95972 98.1288 23.146 59.2095C65.8938 3.94991 102.412 48.6461 150.611 52.5248C153.344 52.7394 156.095 52.8219 158.912 52.7559Z" fill="#EBF3FA"/>
<path d="M486.877 168.656C486.678 170.125 471.219 168.425 471.004 169.877L374.507 170.207H158.912V52.7559C161.629 52.6899 164.38 52.4753 167.213 52.0957C176.674 50.8083 186.599 47.5733 197.12 41.4828C305.961 -21.4021 394.588 -4.31922 444.361 44.7674C450.475 50.8083 456.026 57.3609 460.947 64.2931C482.089 94.118 491.649 131.288 486.877 168.656Z" fill="#F3F8FC"/>
<path opacity="0.6" d="M488.087 150.071C488.103 156.524 487.722 162.994 486.894 169.497C486.695 170.966 471.236 169.266 471.021 170.719L374.523 171.049H158.912V170.95L374.523 170.207L471.021 169.877C471.236 168.425 486.695 170.141 486.894 168.656C487.672 162.45 488.087 156.227 488.087 150.071Z" fill="#EBF3FA"/>
<path d="M445.653 80.3857V170.207H167.213V92.0549H188.554V70.7136H209.894V99.5318H227.176V93.0947H257.265V103.988H270.371V79.5439H305.431V37.6041H333.167V59.9687H339.496V41.2352H367.216V70.0864H392.351V52.3928H419.226V70.0864H424.23V80.3857H445.653Z" fill="#E8F0FD"/>
<path d="M126.786 88.2587H102.032C100.889 88.2587 99.9609 87.3344 99.9609 86.1955V62.395C99.9609 61.2561 100.889 60.3318 102.032 60.3318H126.786C127.929 60.3318 128.857 61.2561 128.857 62.395V86.1955C128.857 87.3344 127.929 88.2587 126.786 88.2587Z" fill="#C0D8FB"/>
<path d="M125.726 87.0538H103.11C102.066 87.0538 101.221 86.212 101.221 85.1722V63.4348C101.221 62.395 102.066 61.5532 103.11 61.5532H125.726C126.77 61.5532 127.615 62.395 127.615 63.4348V85.1722C127.598 86.212 126.753 87.0538 125.726 87.0538Z" fill="#DFEBFD"/>
<path d="M114.409 64.6892C114.738 64.6892 115.005 64.4232 115.005 64.095C115.005 63.7668 114.738 63.5008 114.409 63.5008C114.08 63.5008 113.812 63.7668 113.812 64.095C113.812 64.4232 114.08 64.6892 114.409 64.6892Z" fill="#B7D3F3"/>
<path d="M118.633 64.9368C118.799 64.6562 119.164 64.5406 119.445 64.7057C119.727 64.8707 119.843 65.2339 119.677 65.5145C119.512 65.795 119.147 65.9106 118.865 65.7455C118.584 65.597 118.484 65.2339 118.633 64.9368Z" fill="#B7D3F3"/>
<path d="M122.776 68.2048C123.057 68.0232 123.422 68.1058 123.604 68.3864C123.786 68.667 123.704 69.0301 123.422 69.2116C123.14 69.3932 122.776 69.3107 122.593 69.0301C122.428 68.766 122.494 68.3864 122.776 68.2048Z" fill="#B7D3F3"/>
<path d="M125.383 74.0987C125.508 73.7952 125.363 73.448 125.058 73.323C124.754 73.1981 124.405 73.3428 124.28 73.6463C124.154 73.9497 124.3 74.297 124.604 74.4219C124.909 74.5469 125.258 74.4021 125.383 74.0987Z" fill="#B7D3F3"/>
<path d="M123.787 79.1643C124.019 79.3954 124.019 79.775 123.787 80.0061C123.555 80.2371 123.174 80.2371 122.942 80.0061C122.71 79.775 122.71 79.3954 122.942 79.1643C123.174 78.9332 123.555 78.9332 123.787 79.1643Z" fill="#B7D3F3"/>
<path d="M119.595 83.9343C119.924 83.9343 120.191 83.6683 120.191 83.3401C120.191 83.012 119.924 82.7459 119.595 82.7459C119.265 82.7459 118.998 83.012 118.998 83.3401C118.998 83.6683 119.265 83.9343 119.595 83.9343Z" fill="#B7D3F3"/>
<path d="M114.409 85.4528C114.738 85.4528 115.005 85.1868 115.005 84.8586C115.005 84.5304 114.738 84.2644 114.409 84.2644C114.08 84.2644 113.812 84.5304 113.812 84.8586C113.812 85.1868 114.08 85.4528 114.409 85.4528Z" fill="#B7D3F3"/>
<path d="M110.169 64.9368C110.003 64.6562 109.639 64.5406 109.357 64.7057C109.075 64.8707 108.959 65.2339 109.125 65.5145C109.291 65.795 109.655 65.9106 109.937 65.7455C110.219 65.597 110.318 65.2339 110.169 64.9368Z" fill="#B7D3F3"/>
<path d="M106.027 68.2048C105.745 68.0232 105.381 68.1058 105.198 68.3864C105.016 68.667 105.099 69.0301 105.381 69.2116C105.662 69.3932 106.027 69.3107 106.209 69.0301C106.375 68.766 106.309 68.3864 106.027 68.2048Z" fill="#B7D3F3"/>
<path d="M103.971 74.4768C104.301 74.4768 104.568 74.2108 104.568 73.8826C104.568 73.5544 104.301 73.2884 103.971 73.2884C103.642 73.2884 103.375 73.5544 103.375 73.8826C103.375 74.2108 103.642 74.4768 103.971 74.4768Z" fill="#B7D3F3"/>
<path d="M105.016 79.1643C104.784 79.3954 104.784 79.775 105.016 80.0061C105.248 80.2371 105.629 80.2371 105.861 80.0061C106.093 79.775 106.093 79.3954 105.861 79.1643C105.629 78.9332 105.248 78.9332 105.016 79.1643Z" fill="#B7D3F3"/>
<path d="M109.208 83.9343C109.537 83.9343 109.804 83.6683 109.804 83.3401C109.804 83.012 109.537 82.7459 109.208 82.7459C108.878 82.7459 108.611 83.012 108.611 83.3401C108.611 83.6683 108.878 83.9343 109.208 83.9343Z" fill="#B7D3F3"/>
<path d="M114.841 74.4768C115.17 74.4768 115.437 74.2108 115.437 73.8826C115.437 73.5544 115.17 73.2884 114.841 73.2884C114.511 73.2884 114.244 73.5544 114.244 73.8826C114.244 74.2108 114.511 74.4768 114.841 74.4768Z" fill="#B7D3F3"/>
<path d="M114.939 66.4222H114.773V73.8661H114.939V66.4222Z" fill="#B7D3F3"/>
<path d="M118.567 70.5796L114.605 73.6779L114.912 74.0674L118.874 70.969L118.567 70.5796Z" fill="#B7D3F3"/>
<path d="M167.213 52.0957V169.597H150.611V52.5083C155.996 52.954 161.514 52.8714 167.213 52.0957Z" fill="#DEEDFF"/>
<path d="M460.931 64.2766V169.58H444.346V44.7509C450.476 50.8083 456.01 57.3444 460.931 64.2766Z" fill="#DEEDFF"/>
<path d="M499.271 171.28H0.729032C0.331378 171.28 0 170.95 0 170.554V169.844C0 169.448 0.331378 169.118 0.729032 169.118H499.288C499.685 169.118 500.017 169.448 500.017 169.844V170.554C500 170.95 499.669 171.28 499.271 171.28Z" fill="#2E3552"/>
<path d="M180.816 128.119H178.148L181.413 169.2H187.874L180.816 128.119Z" fill="#B7D3F3"/>
<path d="M233.721 116.136L233.157 116.252C230.606 116.763 228.12 115.113 227.59 112.571L226.994 109.6C226.48 107.058 228.137 104.582 230.689 104.054L231.252 103.939C233.804 103.427 236.289 105.078 236.819 107.619L237.416 110.59C237.929 113.132 236.272 115.624 233.721 116.136Z" fill="#122544"/>
<path d="M178.148 128.119C178.148 128.119 192.679 121.319 212.595 125.841L180.816 128.119H178.148Z" fill="#B7D3F3"/>
<path d="M187.874 169.597L180.799 128.119C180.799 128.119 203.067 120.675 220.332 128.119L230.605 169.332L187.874 169.597Z" fill="#D2E3FC"/>
<path d="M341.815 156.755C341.418 161.261 338.866 162.648 337.756 162.532C336.629 162.417 330.068 159.924 329.935 160.832C329.786 161.74 333.746 164.744 336.513 164.876C336.513 164.876 331.294 170.62 327.831 168.953C324.368 167.302 324.07 164.678 321.899 163.688C319.729 162.697 317.89 162.714 318.784 163.704C319.679 164.711 323.589 165.685 324.832 167.863C325.13 168.375 325.412 168.854 325.627 169.266L318.321 169.25C316.001 168.111 314.046 166.527 313.913 164.81C313.897 164.678 313.897 164.562 313.88 164.43C313.648 161.806 313.648 161.806 313.648 161.806C313.648 161.806 309.904 157.449 311.842 153.834C312.173 153.24 312.654 152.646 313.333 152.117C313.333 152.117 316.829 150.005 319.679 150.186C319.679 150.186 317.476 153.884 316.846 156.062C316.631 156.838 316.597 157.416 316.945 157.597C317.31 157.795 317.807 157.234 318.304 156.343C319.547 154.115 320.905 149.757 320.905 149.757C320.905 149.757 323.01 149.559 325.395 149.526C326.472 149.51 327.599 149.526 328.626 149.625C329.753 149.724 330.764 149.906 331.41 150.219C331.41 150.219 331.261 150.335 331.029 150.533C330.664 150.83 330.101 151.309 329.471 151.87C327.583 153.537 325.13 155.881 326.042 156.095C326.787 156.26 329.107 154.89 331.178 153.52C333.1 152.25 334.807 150.979 334.807 150.979C334.807 150.979 342.213 152.249 341.815 156.755Z" fill="#82B378"/>
<path d="M338.187 156.871C338.187 156.871 318.072 156.095 313.632 161.823C313.632 161.823 312.654 164.76 309.622 167.418L309.158 168.705C309.158 168.705 312.638 165.041 313.897 164.826C313.88 164.826 311.925 157.729 338.187 156.871Z" fill="#82B378"/>
<path d="M310.467 167.401C310.302 167.583 310.037 167.847 309.672 168.194C309.54 168.309 309.424 168.441 309.291 168.573C309.109 168.771 308.927 169.002 308.761 169.25H307.816C308.777 168.062 309.622 167.434 309.622 167.434C309.705 167.385 311.428 166.345 310.467 167.401Z" fill="#82B378"/>
<path d="M291.679 154.379C291.679 154.379 299.798 149.856 296.004 143.716C296.004 143.716 292.971 139.937 289.724 138.979C289.724 138.979 291.447 148.14 289.724 148.354C288.001 148.569 288.531 138.005 288.531 138.005C288.531 138.005 279.981 133.912 276.634 134.226C276.634 134.226 281.937 143.172 280.197 142.957C278.474 142.742 272.509 133.681 272.509 133.681C272.509 133.681 263.744 132.064 262.336 137.23C260.927 142.396 263.197 144.987 264.506 145.317C265.798 145.647 274.133 145.532 273.917 146.605C273.702 147.678 268.068 149.411 264.937 148.437C264.937 148.437 268.4 156.953 272.94 156.524C277.479 156.095 278.888 153.289 281.705 153.075C284.521 152.86 286.576 153.619 285.167 154.362C283.759 155.121 279.004 154.61 276.734 156.541C274.464 158.472 272.625 159.644 276.85 160.519C281.075 161.377 288.647 160.849 290.155 157.614C291.679 154.379 291.679 154.379 291.679 154.379Z" fill="#A8D29F"/>
<path d="M266.361 138.847C266.361 138.847 289.077 146.176 291.679 154.362C291.679 154.362 291.563 158.026 293.849 162.235V163.853C293.849 163.853 291.463 158.356 290.171 157.597C290.154 157.614 295.241 150.5 266.361 138.847Z" fill="#82B378"/>
<path d="M295.937 169.217H294.644C294.611 167.352 294.379 165.239 293.75 163.638C293.667 163.44 293.584 163.242 293.485 163.06C293.22 162.532 293.037 162.153 292.921 161.872C292.259 160.255 293.849 162.235 293.849 162.235C293.849 162.235 295.738 165.124 295.937 169.217Z" fill="#82B378"/>
<path d="M304.587 148.123C304.587 148.123 293.883 142.148 298.887 134.061C298.887 134.061 302.88 129.093 307.155 127.805C307.155 127.805 304.868 139.887 307.155 140.168C309.441 140.448 308.729 126.534 308.729 126.534C308.729 126.534 319.996 121.137 324.42 121.566C324.42 121.566 317.428 133.351 319.714 133.07C322.001 132.79 329.838 120.857 329.838 120.857C329.838 120.857 341.386 118.727 343.242 125.544C345.098 132.361 342.099 135.777 340.392 136.206C338.685 136.636 327.7 136.487 327.982 137.906C328.264 139.326 335.686 141.604 339.812 140.316C339.812 140.316 335.256 151.54 329.258 150.979C323.26 150.417 321.421 146.72 317.709 146.44C313.998 146.159 311.297 147.149 313.153 148.14C315.008 149.13 321.288 148.47 324.27 150.995C327.269 153.537 329.689 155.088 324.121 156.227C318.554 157.366 308.58 156.656 306.575 152.398C304.587 148.123 304.587 148.123 304.587 148.123Z" fill="#A8D29F"/>
<path d="M337.958 127.673C337.958 127.673 308.001 137.329 304.588 148.123C304.588 148.123 304.737 152.959 301.738 158.488V160.618C301.738 160.618 304.87 153.372 306.593 152.382C306.576 152.398 299.883 143.023 337.958 127.673Z" fill="#82B378"/>
<path d="M302.947 158.01C302.798 158.389 302.549 158.901 302.201 159.594C302.085 159.842 301.969 160.089 301.853 160.354C300.826 162.912 300.627 166.444 300.66 169.233H298.937C298.738 163.027 301.721 158.505 301.721 158.505C301.771 158.439 303.809 155.897 302.947 158.01Z" fill="#82B378"/>
<path d="M251.333 169.332H210.657C210.06 167.88 209.53 166.328 209.066 164.711C207.906 160.667 207.161 156.211 206.68 151.853C206.68 151.804 206.664 151.738 206.664 151.688C205.835 144.129 205.835 136.85 205.951 132.476C206.017 129.951 206.117 128.383 206.117 128.317C206.2 128.284 206.299 128.251 206.382 128.218C208.536 127.31 210.607 126.534 212.595 125.874C212.612 125.874 212.612 125.874 212.612 125.874C214.285 125.313 215.876 124.818 217.433 124.405C220.151 123.662 222.669 123.134 225.005 122.755C227.756 122.326 230.258 122.111 232.478 122.061C232.577 122.061 232.677 122.061 232.776 122.061C233.373 122.045 233.936 122.061 234.483 122.061C240.05 122.177 243.761 123.283 245.634 124.026C245.899 124.125 246.114 124.224 246.313 124.306C246.329 124.323 246.363 124.323 246.379 124.339C246.595 124.438 246.76 124.521 246.876 124.57C246.893 124.57 246.909 124.587 246.926 124.587C246.976 124.62 247.042 124.653 247.092 124.669L250.024 155.386L251.333 169.332Z" fill="#2B478B"/>
<path d="M291.878 162.697C287.802 164.579 263.562 166.163 261.226 165.503C260.033 165.157 255.029 160.766 250.009 155.386C245.253 150.285 240.448 144.277 238.841 139.953C235.511 131.073 238.377 123.184 238.377 123.184C238.377 123.184 244.558 123.151 247.093 124.669C249.611 126.188 264.026 152.646 265.965 153.339C267.887 154.049 290.735 155.336 293.353 156.574C293.32 156.557 295.938 160.799 291.878 162.697Z" fill="#2B478B"/>
<path d="M232.761 123.101V124.603C232.761 124.603 233.175 129.274 227.392 129.967C221.61 130.661 217.235 128.152 217.385 124.554C217.898 121.764 218.462 119.833 218.511 117.522C218.528 116.664 218.462 115.756 218.296 114.717L229.496 114.469L232.794 114.997L232.761 123.101Z" fill="#EA9E6A"/>
<path d="M232.794 115.014L232.761 123.101C231.568 123.662 230.225 123.993 228.718 123.993C223.565 123.993 218.445 115.74 218.279 114.717L232.794 115.014Z" fill="#D88D59"/>
<path d="M233.439 118.942C233.439 118.942 219.091 121.847 217.417 112.918C215.744 103.988 212.745 98.3599 221.841 96.1152C230.921 93.887 233.356 96.9569 234.649 99.7958C235.925 102.651 237.134 117.952 233.439 118.942Z" fill="#EA9E6A"/>
<path d="M237.415 93.1772C237.415 93.1772 233.405 92.8801 228.683 90.8335C224.856 89.183 220.018 91.0151 218.46 91.8403C218.51 91.5927 218.609 91.2461 218.841 90.8995C218.841 90.8995 218.145 91.3947 218.029 92.0879C217.963 92.1374 217.93 92.1704 217.947 92.1869C217.947 92.1869 217.151 92.0384 216.638 92.2695C216.638 92.2695 217.002 92.2199 217.118 92.451C217.135 92.4675 217.151 92.5005 217.168 92.517C211.203 95.4054 210.656 104.813 212.578 106.976C214.898 109.583 217.682 115.476 217.682 115.476C217.682 115.476 218.692 114.073 218.261 111.779C217.831 109.468 219.835 109.468 222.354 108.428C224.872 107.372 222.768 104.45 224.972 102.668C227.176 100.885 235.278 101.925 235.162 100.555C238.21 99.4657 237.415 93.4743 237.415 93.1772Z" fill="#8E342E"/>
<path d="M210.64 169.332C210.043 167.88 209.513 166.328 209.049 164.711C207.889 160.667 207.144 156.211 206.663 151.853C206.663 151.804 206.646 151.738 206.646 151.688C206.68 151.705 206.729 151.787 206.762 151.738C208.353 149.823 212.678 147.727 217.913 155.352C218.957 156.871 223.547 167.533 224.276 169.316H210.64V169.332Z" fill="#233862"/>
<path d="M214.898 169.332C214.782 168.639 214.915 167.781 215.445 166.692C215.445 166.692 216.124 166.262 217.002 165.751C218.328 165.008 220.151 164.1 220.962 164.249C221.112 164.282 221.31 164.315 221.542 164.381C223.498 164.843 228.054 166.246 228.733 167.055C229.297 167.731 230.075 168.59 230.606 169.332H214.898Z" fill="#EA9E6A"/>
<path d="M217.913 169.332H179.573C179.473 168.837 179.473 168.392 179.606 168.045C180.749 165.173 182.986 160.436 185.554 155.352C187.443 151.622 189.514 147.694 191.469 144.178C194.187 139.309 196.672 135.233 198.13 133.549C199.29 132.229 200.731 131.123 202.256 130.215C203.548 129.439 204.874 128.812 206.1 128.3C206.182 128.267 206.282 128.234 206.365 128.201C209.032 127.129 211.153 126.65 211.153 126.65C211.153 126.65 211.186 127.855 211.186 129.703C211.186 135.084 210.987 145.928 209.264 148.585C208.784 149.328 207.889 150.434 206.762 151.738C206.729 151.771 206.696 151.804 206.663 151.853C206.05 152.563 205.387 153.322 204.675 154.098C200.682 158.555 195.612 163.803 194.982 164.447C194.932 164.496 194.916 164.513 194.916 164.513H194.982L205.735 164.661L209.032 164.711L215.875 164.81C216.339 165.008 216.72 165.338 217.002 165.751C217.665 166.725 217.88 168.128 217.913 169.332Z" fill="#2B478B"/>
<path d="M291.877 162.697C287.801 164.579 263.561 166.163 261.225 165.503C260.032 165.157 255.028 160.766 250.008 155.385C250.256 155.419 252.559 151.606 263.048 160.733C263.048 160.733 265.798 161.955 273.271 161.261C280.727 160.568 290.32 160.321 291.877 162.697Z" fill="#233862"/>
<path d="M268.052 169.25H240.332C240.332 168.029 241.326 167.055 242.536 167.055H268.035V169.25H268.052Z" fill="#B24940"/>
<path d="M267.968 139.194H310.816L300.543 169.25H257.414L267.968 139.194Z" fill="#B24940"/>
<path d="M311.463 139.194L301.174 169.25H258.045L268.599 139.194H311.463Z" fill="#C65447"/>
<path d="M288.348 153.95C288.083 155.105 286.923 156.029 285.78 156.029C284.62 156.029 283.907 155.105 284.173 153.95C284.438 152.794 285.597 151.87 286.741 151.87C287.901 151.87 288.613 152.794 288.348 153.95Z" fill="#F9DDBF"/>
<path d="M311.462 139.194L301.172 169.25H281.107L305.149 139.194H311.462Z" fill="#B24940"/>
<path d="M221.592 116.136L221.029 116.252C218.477 116.763 215.992 115.113 215.461 112.571L214.865 109.6C214.351 107.058 216.008 104.582 218.56 104.054L219.123 103.939C221.675 103.427 224.16 105.078 224.69 107.619L225.287 110.59C225.784 113.132 224.127 115.624 221.592 116.136Z" fill="#122544"/>
<path d="M217.136 105.424C216.754 104.731 216.191 99.2017 217.715 94.7948C218.461 92.6656 219.654 91.4442 221.145 90.6354C221.692 90.3383 222.288 90.1733 222.918 90.1733L224.426 90.2063C219.472 92.3025 218.312 103.477 218.71 104.681C218.693 104.648 218.676 104.615 218.676 104.599L217.136 105.424Z" fill="#122544"/>
<path d="M231.616 117.06C223.282 117.06 219.156 110.508 219.123 110.442L219.869 109.996C219.902 110.062 223.795 116.202 231.616 116.202C231.666 116.202 231.715 116.202 231.765 116.202L231.782 117.077C231.715 117.06 231.666 117.06 231.616 117.06Z" fill="#122544"/>
<path d="M220.251 113.215L219.969 113.264C218.71 113.512 217.451 112.703 217.202 111.432L216.904 109.947C216.656 108.692 217.467 107.438 218.743 107.19L219.025 107.141C220.284 106.893 221.543 107.702 221.792 108.973L222.09 110.458C222.339 111.713 221.51 112.967 220.251 113.215Z" fill="#2B478B"/>
<path d="M232.644 117.357H231.866C231.468 117.357 231.137 117.027 231.137 116.631C231.137 116.235 231.468 115.905 231.866 115.905H232.644C233.042 115.905 233.374 116.235 233.374 116.631C233.374 117.027 233.042 117.357 232.644 117.357Z" fill="#122544"/>
<path d="M65.9781 104.368C65.9781 104.368 58.9861 107.933 64.0893 115.575C64.0893 115.575 58.0913 116.268 56.567 114.552C56.567 114.552 56.799 115.311 57.0641 115.674C57.0641 115.674 51.2484 114.915 49.1607 112.719C47.073 110.524 53.5846 81.31 69.0765 87.2849C69.0765 87.2849 82.8619 88.5393 78.9516 104.005C75.0413 119.47 80.1777 120.328 80.1777 120.328C80.1777 120.328 78.6368 120.791 77.9409 120.675C77.9409 120.675 76.9965 120.13 76.8971 119.536C76.8971 119.536 76.9468 120.444 77.1622 120.758C77.1622 120.758 71.5287 120.361 69.1097 117.803C66.674 115.261 64.6361 107.471 65.9781 104.368Z" fill="#8E342E"/>
<path d="M75.9508 112.01L75.3875 112.092C72.9022 112.439 70.566 110.689 70.2346 108.197L69.8369 105.276C69.489 102.8 71.2453 100.473 73.7472 100.142L74.3105 100.06C76.7959 99.7133 79.1321 101.463 79.4635 103.955L79.8611 106.877C80.1925 109.352 78.4362 111.663 75.9508 112.01Z" fill="#ED7D2B"/>
<path d="M77.5428 135.365C75.4551 136.966 74.1296 142.759 70.7827 143.716C58.1737 147.298 51.4136 132.394 49.1934 125.115C50.8834 124.042 52.5071 123.728 53.4516 123.58C54.3629 123.431 55.3404 123.299 56.1357 123.217C57.511 122.045 59.4164 117.473 59.5324 110.508L60.1454 110.64L70.3353 112.868C70.3353 112.868 70.037 116.07 69.9708 119.09C69.9211 121.451 69.8382 122.012 70.0205 122.292C70.8158 122.425 71.7436 124.438 71.7436 124.438C71.7436 124.438 71.7436 124.438 71.7436 124.455C71.8928 124.669 75.0574 129.291 77.5428 135.365Z" fill="#FFB27D"/>
<path d="M70.3344 112.851C70.3344 112.851 70.0362 116.054 69.9699 119.074C64.2371 118.793 61.3209 113.528 60.1445 110.623L70.3344 112.851Z" fill="#ED985F"/>
<path d="M122.179 165.52C122.179 165.52 116.181 165.734 109.67 165.767C108.907 165.767 108.112 165.767 107.35 165.767C102.048 165.751 96.8452 165.553 94.6249 164.992C92.4544 164.43 84.1202 158.819 77.4595 152.002C76.9459 153.223 76.5483 154.164 76.5483 154.247C76.3494 155.782 76.018 157.317 75.637 158.786C74.1292 164.397 71.6107 169.118 71.5113 169.283H67.949L40.0801 169.25C40.0801 169.25 45.349 161.179 43.9241 140.481C43.8909 139.953 48.7788 123.266 48.7788 123.266C48.7788 123.266 52.573 122.606 56.9638 122.259C57.378 122.639 58.223 133.615 63.7239 134.259C64.6186 134.358 70.3515 143.073 70.3515 143.073L72.0912 134.16L70.0367 122.342C72.6711 123.118 74.1126 123.382 76.2997 124.257C77.7909 124.851 79.017 125.94 79.7958 127.343C83.6397 134.325 96.083 156.854 97.3588 157.383C98.5518 157.878 103.042 158.769 107.781 159.627C114.127 160.783 120.953 161.872 120.953 161.872L122.179 165.52Z" fill="#D2E3FC"/>
<path d="M72.0256 115.905C72.0256 115.905 58.4722 115.641 58.7705 107.24C59.0687 98.8385 57.5112 93.1442 66.1768 92.9462C74.8423 92.7646 76.4164 96.0326 76.9963 98.855C77.5928 101.694 75.5714 115.756 72.0256 115.905Z" fill="#FFB27D"/>
<path d="M109.669 165.767C108.907 165.767 108.111 165.767 107.349 165.767C102.047 165.751 96.8446 165.553 94.6244 164.992C92.4538 164.43 84.1197 158.819 77.459 152.002C77.459 152.002 78.8673 146.638 79.4638 145.746C80.0769 144.839 82.4628 153.57 88.0465 157.119C93.6302 160.667 102.379 163.159 106.62 162.153C109.503 161.459 109.785 164.018 109.669 165.767Z" fill="#B7D3F3"/>
<path d="M69.373 111.234C69.373 111.234 69.4559 112.241 71.6761 112.406C71.6761 112.406 73.5484 112.538 73.6147 111.465C73.6147 111.449 71.9247 110.425 69.373 111.234Z" fill="white"/>
<path d="M70.1022 114.634C62.3976 112.208 60.5088 104.945 60.4922 104.879L61.3206 104.681C61.3372 104.747 63.1266 111.564 70.3673 113.842C70.417 113.858 70.4667 113.875 70.5164 113.891L70.2513 114.667C70.2016 114.667 70.1519 114.651 70.1022 114.634Z" fill="#122544"/>
<path d="M70.9803 115.195L70.2513 114.964C69.8868 114.849 69.6714 114.452 69.7874 114.089C69.9033 113.726 70.301 113.512 70.6655 113.627L71.3945 113.858C71.7591 113.974 71.9745 114.37 71.8585 114.733C71.7425 115.113 71.3448 115.311 70.9803 115.195Z" fill="#ED7D2B"/>
<path d="M72.8032 91.8238C72.8032 91.8238 69.3403 102.057 64.1211 103.807C58.9185 105.54 57.1953 103.493 57.1953 103.493C57.1953 103.493 61.0393 99.9774 61.4701 94.2996C61.4701 94.2996 69.8871 87.648 72.8032 91.8238Z" fill="#8E342E"/>
<path d="M66.3262 94.8443C66.3262 94.8443 73.4011 94.4481 75.5054 96.4618C77.0297 97.9142 76.9966 98.657 77.1125 100.588C77.1125 100.588 80.2109 95.8346 77.0297 92.517C73.6496 88.9849 66.3262 94.8443 66.3262 94.8443Z" fill="#8E342E"/>
<path d="M72.5062 92.9132C72.5062 92.9132 70.7334 102.717 64.2715 106.266C64.2715 106.266 70.5345 99.8784 70.6505 93.4908C70.7499 87.1033 72.5062 92.9132 72.5062 92.9132Z" fill="#8E342E"/>
<path d="M49.1594 112.703C51.2471 114.898 57.0628 115.657 57.0628 115.657C56.7977 115.294 56.5657 114.535 56.5657 114.535C59.5481 116.945 66.9047 115.195 66.9047 115.195C61.0393 113.908 62.9447 105.49 64.933 105.127C66.0928 98.7725 68.3959 90.8665 69.4729 87.3179C69.2078 87.2684 69.0587 87.2684 69.0587 87.2684C53.5667 81.2935 47.0717 110.508 49.1594 112.703Z" fill="#8E342E"/>
<path d="M61.8844 111.135L61.3211 111.217C58.8358 111.564 56.4995 109.815 56.1682 107.322L55.7705 104.401C55.4226 101.925 57.1789 99.5978 59.6808 99.2677L60.2441 99.1852C62.7295 98.8385 65.0657 100.588 65.3971 103.08L65.7947 106.002C66.1261 108.478 64.3698 110.805 61.8844 111.135Z" fill="#ED7D2B"/>
<path d="M58.2226 100.506C57.8912 99.8784 59.051 95.0588 60.7742 91.3121C61.6026 89.4966 63.6903 87.0868 65.1815 86.4596C65.7283 86.2285 66.4408 86.3276 67.0207 86.4596C67.4515 86.5586 68.6444 87.1033 68.6444 87.1033C63.74 88.6218 59.4653 98.8715 59.7801 99.9279C59.7635 99.8949 59.7635 99.8784 59.7469 99.8454L58.2226 100.506Z" fill="#ED7D2B"/>
<path d="M60.7585 108.247L60.4769 108.28C59.2342 108.445 58.0744 107.586 57.9087 106.348L57.7098 104.896C57.5442 103.658 58.4057 102.503 59.6484 102.338L59.9301 102.305C61.1728 102.14 62.3326 102.998 62.4983 104.236L62.6971 105.688C62.8628 106.926 62.0012 108.065 60.7585 108.247Z" fill="#F99746"/>
<path d="M93.6474 160.651C93.6474 160.651 99.4631 160.321 100.026 160.618C100.938 161.113 104.069 163.11 104.55 163.688C105.047 164.265 106.323 166.609 106.323 166.609C106.323 166.609 105.776 166.758 105.511 166.543C105.262 166.312 103.357 164.315 103.357 164.315L105.312 167.269C105.312 167.269 104.633 167.236 104.368 166.939C104.102 166.642 102.28 164.81 102.28 164.81L101.667 164.694C101.667 164.694 102.296 165.206 102.644 165.652C102.992 166.114 103.208 166.593 103.208 166.593C103.208 166.593 102.644 166.494 102.479 166.411C102.313 166.328 100.673 164.909 100.673 164.909L101.534 166.081C101.534 166.081 100.954 166.048 100.755 165.916C100.557 165.784 99.2974 164.612 99.0655 164.628C98.8335 164.628 97.2097 164.562 96.5139 164.199C95.818 163.836 93.6309 162.994 93.6309 162.994L93.6474 160.651Z" fill="#FFB27D"/>
<path d="M57.7582 120.576C57.7582 120.576 53.8645 121.698 52.9863 122.59C52.9863 122.59 57.0457 132.938 62.9111 137.774L64.4852 136.669V139.177L70.3505 143.007C70.334 143.007 57.4434 123.712 57.7582 120.576Z" fill="#B7D3F3"/>
<path d="M75.6199 158.753C74.1121 164.364 71.5937 169.085 71.4942 169.25H52.9868C52.9868 169.25 55.1407 169.25 55.1242 169.233C55.0745 169.052 58.2557 160.453 52.9868 156.937C47.7013 153.405 45.7793 144.74 45.7793 144.74L62.5967 140.646C62.5967 140.646 69.5225 150.715 71.4942 152.646C73.002 154.115 76.5312 154.23 76.5312 154.23L75.6199 158.753Z" fill="#B7D3F3"/>
<path d="M70.0193 122.292C70.0193 122.292 71.8088 136.371 70.3341 143.007C70.3341 143.007 72.7366 138.616 73.068 137.807L72.6704 135.398L74.2113 135.942C74.2113 135.942 72.8526 124.719 71.61 122.755C70.3673 120.791 69.9199 120.592 69.9199 120.592L70.0193 122.292Z" fill="#B7D3F3"/>
<path d="M122.179 165.52C122.179 165.52 114.673 165.8 107.35 165.767C105.527 162.961 107.764 159.594 107.764 159.594C114.11 160.75 120.936 161.839 120.936 161.839L122.179 165.52Z" fill="#FFB27D"/>
<path d="M122.892 169.25H95.1719C95.1719 168.029 96.166 167.055 97.3755 167.055H122.875V169.25H122.892Z" fill="#ED7D2B"/>
<path d="M165.656 139.194L155.383 169.25H112.254L122.808 139.194H165.656Z" fill="#ED7D2B"/>
<path d="M165.657 139.194L155.483 168.986L155.384 169.25H112.885L123.439 139.194H165.657Z" fill="#F99746"/>
<path d="M143.188 153.95C142.923 155.105 141.763 156.029 140.62 156.029C139.46 156.029 138.747 155.105 139.012 153.95C139.277 152.794 140.437 151.87 141.581 151.87C142.74 151.87 143.453 152.794 143.188 153.95Z" fill="#FFC397"/>
<path d="M165.655 139.194L155.482 168.986H135.947L159.757 139.194H165.655Z" fill="#ED7D2B"/>
<path d="M93.6468 162.994C93.6468 162.994 79.3809 164.232 71.4941 163.886V156.161C76.6636 157.581 93.6468 160.651 93.6468 160.651V162.994Z" fill="#FFB27D"/>
<path d="M52.9876 122.606C52.9876 122.606 44.8357 122.788 42.3007 125.511C39.7822 128.234 44.8026 143.584 44.8026 143.584C44.8026 143.584 60.0128 162.136 67.6179 163.44C67.6179 163.44 70.9483 163.886 72.4892 163.919C72.4892 163.919 70.9649 159.512 73.7981 156.739C73.7981 156.739 70.5341 155.831 70.4015 155.435C70.269 155.022 52.9876 122.606 52.9876 122.606Z" fill="#D2E3FC"/>
<path d="M393.958 87.6315C393.958 87.6315 385.69 84.5615 380.537 90.5859C377.571 94.0355 358.65 129.984 358.865 133.136C359.097 136.289 360.903 137.857 360.903 137.857C360.903 137.857 360.108 135.101 360.704 133.665C360.704 133.665 360.323 138.517 363.322 140.58C364.88 141.653 403.85 139.557 407.246 134.853C414.603 124.636 398.531 119.338 398.929 108.296C399.161 101.876 405.473 88.2752 393.958 87.6315Z" fill="#2C3A64"/>
<path d="M401.828 110.524L401.282 110.64C398.813 111.135 396.394 109.534 395.897 107.075L395.317 104.186C394.82 101.727 396.427 99.3172 398.896 98.822L399.442 98.7065C401.911 98.2113 404.33 99.8124 404.827 102.272L405.407 105.16C405.904 107.619 404.297 110.029 401.828 110.524Z" fill="#ED7D2B"/>
<path d="M437.186 169.2H411.338C406.947 162.268 403.103 152.893 402.192 145.614C401.761 142.148 402.01 139.161 403.17 137.114C406.782 130.76 401.049 123.299 401.049 123.299C401.049 123.299 408.936 125.528 410.775 131.998C412.647 138.6 417.651 160.552 417.651 160.552L436.854 164.48C437.749 166.725 437.186 169.2 437.186 169.2Z" fill="#F99746"/>
<path d="M437.187 169.2H411.339C406.949 162.268 403.105 152.893 402.193 145.614L406.021 144.443C406.021 144.443 410.875 166.51 413.692 166.84C416.525 167.187 437.187 169.2 437.187 169.2Z" fill="#ED7D2B"/>
<path d="M404.877 133.747C402.888 135.48 400.337 136.999 397.039 138.171C384.679 142.528 378.598 132.377 375.947 125.247C377.571 124.059 379.178 123.662 380.106 123.448C381.017 123.233 381.962 123.052 382.757 122.92C384.066 121.665 385.673 116.978 385.358 110.013L385.971 110.112L396.277 111.713C396.277 111.713 396.178 114.931 396.294 117.952C396.393 120.312 396.609 122.557 397.122 123.052C397.918 123.134 398.398 123.184 398.398 123.184C398.398 123.184 398.398 123.184 398.398 123.2C398.564 123.398 402.01 127.838 404.877 133.747Z" fill="#FFB27D"/>
<path d="M396.279 111.713C396.279 111.713 396.179 114.931 396.295 117.952C390.562 118.018 387.331 112.951 385.973 110.112L396.279 111.713Z" fill="#ED985F"/>
<path d="M409.782 144.443C409.749 144.657 406.998 153.586 406.965 153.818C406.004 161.294 404.281 169.266 404.281 169.266H400.487L375.501 169.217C375.501 169.217 378.516 160.156 370.563 146.258C370.298 145.796 370.033 145.35 369.751 144.872C368.625 143.023 375.766 123.217 375.766 123.217C375.766 123.217 378.897 122.672 383.288 122.309C383.702 122.689 386.751 133.797 392.269 134.127C399.476 134.572 396.742 122.193 396.742 122.193C399.675 122.788 400.735 123.002 404.496 124.785C404.496 124.785 409.931 143.221 409.782 144.443Z" fill="#F99746"/>
<path d="M398.167 114.667C398.167 114.667 384.613 115.228 384.398 106.827C384.166 98.4259 382.277 92.8306 390.909 92.1044C399.542 91.3947 401.315 94.5472 402.077 97.3366C402.839 100.126 401.679 114.287 398.167 114.667Z" fill="#FFB27D"/>
<path d="M395.217 110.145C395.217 110.145 395.366 111.151 397.586 111.168C397.586 111.168 399.458 111.184 399.475 110.095C399.475 110.112 397.719 109.204 395.217 110.145Z" fill="white"/>
<path d="M396.163 113.495C388.325 111.548 385.989 104.417 385.973 104.335L386.785 104.087C386.801 104.153 389.005 110.838 396.378 112.67C396.428 112.686 396.477 112.686 396.527 112.703L396.328 113.528C396.262 113.528 396.212 113.512 396.163 113.495Z" fill="#122544"/>
<path d="M397.056 114.007L396.31 113.825C395.929 113.726 395.697 113.347 395.796 112.967C395.896 112.587 396.277 112.356 396.658 112.455L397.404 112.637C397.785 112.736 398.017 113.116 397.917 113.495C397.818 113.875 397.437 114.106 397.056 114.007Z" fill="#2C3A64"/>
<path d="M390.479 86.8722C390.479 86.8722 399.195 85.5188 402.807 92.7481C405.557 98.2609 403.27 101.694 402.194 102.75C402.194 102.75 400.769 94.8443 398.101 94.1676C398.101 94.1676 396.378 93.6394 395.218 95.0093C394.042 96.3628 392.352 102.42 390.396 103.344C390.396 103.344 384.349 104.83 384.051 102.734C383.752 100.638 383.918 94.085 385.442 93.0452C386.983 91.9724 390.479 86.8722 390.479 86.8722Z" fill="#2C3A64"/>
<path d="M387.729 110.524L387.182 110.64C384.713 111.135 382.294 109.534 381.797 107.075L381.217 104.186C380.72 101.727 382.327 99.3172 384.796 98.822L385.343 98.7065C387.812 98.2113 390.231 99.8124 390.728 102.272L391.308 105.16C391.805 107.619 390.198 110.029 387.729 110.524Z" fill="#ED7D2B"/>
<path d="M383.422 100.142C383.057 99.5483 382.51 94.7122 383.985 90.883C384.697 89.0344 385.857 87.9616 387.315 87.2519C387.846 86.9878 388.425 86.8557 389.022 86.8557L390.48 86.8722C385.675 88.6878 384.565 98.4424 384.929 99.4822C384.913 99.4492 384.896 99.4327 384.896 99.4162L383.422 100.142Z" fill="#ED7D2B"/>
<path d="M386.436 107.702L386.155 107.751C384.929 107.999 383.719 107.207 383.471 105.969L383.172 104.533C382.924 103.311 383.719 102.107 384.962 101.859L385.244 101.809C386.47 101.562 387.679 102.354 387.928 103.592L388.226 105.028C388.458 106.249 387.663 107.454 386.436 107.702Z" fill="#F99746"/>
<path d="M375.518 169.2C375.518 169.2 378.533 160.139 370.58 146.242L373.546 142.561C373.546 142.561 378.782 157.35 385.343 161.674C391.888 165.982 399.576 165.074 400.504 169.25L375.518 169.2Z" fill="#ED7D2B"/>
<path d="M375.765 123.2C375.765 123.2 370.38 123.662 366.768 130.017C363.156 136.371 356.297 160.123 356.297 169.184H385.16C385.16 169.184 385.723 166.708 384.829 164.463L366.967 161.047C366.967 161.047 377.72 145.152 377.836 138.286C377.936 131.436 375.765 123.2 375.765 123.2Z" fill="#F99746"/>
<path d="M385.326 166.279C385.326 166.279 390.943 165.734 391.888 165.982C392.815 166.229 395.483 167.335 396.079 167.715C396.676 168.095 397.819 169.2 397.819 169.2C397.819 169.2 397.107 169.332 396.676 169.233C396.245 169.134 394.986 169.052 394.638 169.019C394.307 168.986 393.08 169.233 393.08 169.233H384.365L385.326 166.279Z" fill="#FFB27D"/>
<path d="M436.259 169.25H408.539C408.539 168.029 409.533 167.055 410.743 167.055H436.259V169.25Z" fill="#233862"/>
<path d="M479.023 139.194L468.75 169.25H425.621L436.175 139.194H479.023Z" fill="#233862"/>
<path d="M479.024 139.194L468.834 168.986L468.751 169.25H426.252L436.806 139.194H479.024Z" fill="#2B478B"/>
<path d="M456.555 153.95C456.29 155.105 455.13 156.029 453.987 156.029C452.827 156.029 452.114 155.105 452.38 153.95C452.645 152.794 453.804 151.87 454.948 151.87C456.091 151.87 456.82 152.794 456.555 153.95Z" fill="#F99746"/>
<path d="M479.023 139.194L468.833 168.986H449.314L473.124 139.194H479.023Z" fill="#233862"/>
</g>
<defs>
<clipPath id="clip0_351_674">
<rect width="500" height="170.664" fill="white" transform="translate(0 0.780899)"/>
</clipPath>
</defs>
</svg>
